Coordinates
version=1
nRows=18
nColumns=38
inDegrees=yes

Units are S.I. units (second, meters, Newtons, ...)
Angles are in degrees.

endheader
time	pelvis_tilt	pelvis_list	pelvis_rotation	pelvis_tx	pelvis_ty	pelvis_tz	hip_flexion_r	hip_adduction_r	hip_rotation_r	knee_angle_r	ankle_angle_r	subtalar_angle_r	mtp_angle_r	hip_flexion_l	hip_adduction_l	hip_rotation_l	knee_angle_l	ankle_angle_l	subtalar_angle_l	mtp_angle_l	lumbar_extension	lumbar_bending	lumbar_rotation	arm_flex_r	arm_add_r	arm_rot_r	elbow_flex_r	pro_sup_r	wrist_flex_r	wrist_dev_r	arm_flex_l	arm_add_l	arm_rot_l	elbow_flex_l	pro_sup_l	wrist_flex_l	wrist_dev_l
      1.48000000	      3.09844530	     -3.83574056	      7.17925501	      0.08903611	      0.96386927	     -0.25111145	     19.11415561	      7.20687559	     -6.20416851	    -17.83869646	     -7.09882559	    -14.63716935	      0.00000000	     -4.70656829	     -7.57246862	     -4.77048597	    -50.77925650	    -12.89785287	      5.01729914	      0.00000000	    -11.64336573	      6.05309972	     -9.24414997	    -12.25983649	     -8.23574399	     38.78923384	     26.70253183	     39.68252841	      0.00000000	      0.00000000	      7.39338034	    -12.60159719	     25.13428894	     53.61760532	     39.68252841	      0.00000000	      0.00000000
      1.49000000	      3.20240365	     -4.39525979	      7.13025856	      0.10347014	      0.96533589	     -0.25015786	     18.34840591	      8.04510624	     -5.89983296	    -18.25427197	     -6.01956579	    -14.81112120	      0.00000000	     -2.91013399	     -8.66086199	     -4.80689040	    -53.98798203	    -15.60192760	      3.88394381	      0.00000000	    -11.65360689	      6.65836860	     -8.75091022	    -11.83867670	     -8.42430840	     38.76752245	     26.72836199	     39.71764221	      0.00000000	      0.00000000	      6.70211553	    -12.23623728	     25.31127394	     53.26899586	     39.71764221	      0.00000000	      0.00000000
      1.50000000	      3.07947536	     -5.06402189	      7.04707302	      0.11743272	      0.96664164	     -0.24918867	     17.52185157	      8.94311276	     -6.03537778	    -17.95763266	     -5.26236209	    -14.79050858	      0.00000000	     -0.84814488	    -10.17907313	     -5.55896841	    -56.97728731	    -16.70782994	      2.26938195	      0.00000000	    -11.45271238	      7.35703937	     -8.20222500	    -11.36022024	     -8.70103913	     38.80705849	     26.89502419	     39.78778694	      0.00000000	      0.00000000	      6.13127619	    -11.75717559	     25.46663173	     52.39715084	     39.78778694	      0.00000000	      0.00000000
      1.51000000	      2.95748760	     -5.64278398	      6.98596416	      0.13119474	      0.96814082	     -0.24827438	     16.36711452	      9.75287116	     -6.03525866	    -17.05139395	     -4.55951116	    -14.58514233	      0.00000000	      1.07179592	    -11.35332121	     -6.08057403	    -59.59158327	    -15.93763125	     -0.19363607	      0.00000000	    -11.27037465	      7.95015640	     -7.65462351	    -10.80837049	     -8.97021619	     38.81192594	     27.06824156	     39.82698860	      0.00000000	      0.00000000	      5.50453037	    -11.34543901	     25.64355834	     51.70449206	     39.82698860	      0.00000000	      0.00000000
      1.52000000	      2.76549698	     -6.01649920	      6.96510420	      0.14455318	      0.96991756	     -0.24757125	     15.09460587	     10.32061269	     -6.07179918	    -15.76444727	     -4.10352550	    -14.29212097	      0.00000000	      3.04618395	    -11.77188753	     -5.86799190	    -61.73499262	    -14.28337413	     -3.92871323	      0.00000000	    -11.04312943	      8.32031589	     -7.12264230	    -10.40261049	     -9.42982564	     39.24781454	     28.04291929	     40.16267021	      0.00000000	      0.00000000	      5.86019722	    -10.47743434	     26.54591682	     47.97557214	     40.16267021	      0.00000000	      0.00000000
      1.53000000	      2.62129663	     -6.16999553	      6.99602364	      0.15776991	      0.97196962	     -0.24700494	     13.77096770	     10.65291634	     -6.07688699	    -14.54502117	     -3.60511581	    -14.06840964	      0.00000000	      4.98527440	    -11.90619714	     -5.58622308	    -63.50772514	    -11.25711821	     -7.08297558	      0.00000000	    -10.93093849	      8.40946043	     -6.67901778	     -9.78179901	     -9.65960097	     39.19055957	     28.15089786	     40.20860144	      0.00000000	      0.00000000	      5.19634836	    -10.18765392	     26.89956473	     47.52787617	     40.20860144	      0.00000000	      0.00000000
      1.54000000	      2.58727399	     -6.11028308	      7.07199271	      0.17084387	      0.97432313	     -0.24656486	     12.40109232	     10.76769861	     -5.95516132	    -13.51820613	     -3.13896623	    -13.82815258	      0.00000000	      6.89705601	    -11.79084499	     -5.27737969	    -64.99952888	     -9.59450409	    -10.26059608	      0.00000000	    -10.95821008	      8.29717880	     -6.39672422	     -8.89826576	     -9.88108079	     39.15073858	     28.52404987	     40.27708513	      0.00000000	      0.00000000	      4.73133706	     -9.95306234	     27.29091273	     46.60323040	     40.27708513	      0.00000000	      0.00000000
      1.55000000	      2.60416800	     -5.95913672	      7.25537797	      0.18387701	      0.97664593	     -0.24615046	     11.16063968	     10.78446997	     -5.87542761	    -12.88589419	     -2.41558400	    -13.75970079	      0.00000000	      8.64955903	    -11.90022711	     -5.40872346	    -66.14549951	     -7.28782787	    -12.08165760	      0.00000000	    -11.03744052	      8.02411635	     -5.99112421	     -8.36695987	     -9.89606362	     39.12133282	     28.66344474	     40.29025224	      0.00000000	      0.00000000	      4.25341882	     -9.82460777	     27.43020581	     46.28137390	     40.29025224	      0.00000000	      0.00000000
      1.56000000	      2.56688059	     -5.59619922	      7.32142903	      0.19599258	      0.97911105	     -0.24612221	     10.07906076	     10.50157909	     -5.67807921	    -12.43231200	     -1.92527180	    -13.16576373	      0.00000000	     10.41613625	    -11.18706360	     -4.98779738	    -66.84161480	     -6.95961673	    -14.84729611	      0.00000000	    -11.17603386	      7.61218954	     -5.75341920	     -7.68962850	    -10.34945671	     39.33554191	     29.63301319	     40.66107588	      0.00000000	      0.00000000	      4.93672549	     -9.12837949	     29.61192585	     41.58679518	     40.66107588	      0.00000000	      0.00000000
      1.57000000	      2.62429692	     -5.19540489	      7.22304500	      0.20924270	      0.98178414	     -0.24587047	      8.70822915	     10.26015842	     -5.21538559	    -11.78506809	     -1.36398514	    -12.84015793	      0.00000000	     11.81627894	    -10.60760407	     -4.99893739	    -67.12367448	     -5.76159628	    -16.01293745	      0.00000000	    -11.28579152	      7.09259319	     -5.29853278	     -6.95775401	    -10.45358630	     39.25296269	     29.76749637	     40.67969477	      0.00000000	      0.00000000	      4.28994998	     -8.98708598	     29.84076086	     41.34109118	     40.67969477	      0.00000000	      0.00000000
      1.58000000	      2.76184514	     -4.72874715	      7.23801084	      0.22199975	      0.98450030	     -0.24577745	      7.16265397	      9.93126867	     -5.10307561	    -10.82844304	     -0.99502451	    -12.48069305	      0.00000000	     13.11942451	     -9.69901680	     -4.66425886	    -67.05632874	     -5.05845261	    -17.32300181	      0.00000000	    -11.52034390	      6.53347588	     -4.95027768	     -6.33552604	    -10.67554675	     38.46182164	     30.68553512	     41.79093588	      0.00000000	      0.00000000	      5.41070036	     -9.17395516	     36.74220184	     36.67527583	     41.79093588	      0.00000000	      0.00000000
      1.59000000	      2.75571480	     -4.32214093	      7.15302154	      0.23465816	      0.98670016	     -0.24551725	      5.68023342	      9.62208182	     -4.43830075	     -9.82967555	     -0.50471946	    -11.93500856	      0.00000000	     14.49316756	     -8.84156718	     -4.37006004	    -66.74495613	     -4.12264465	    -17.56559598	      0.00000000	    -11.59771958	      5.98753188	     -4.66181608	     -5.45070889	    -10.83104099	     38.36605254	     30.92602086	     41.82033485	      0.00000000	      0.00000000	      4.64408106	     -9.16214250	     36.81812072	     36.35130451	     41.82033485	      0.00000000	      0.00000000
      1.60000000	      2.68562662	     -3.96574138	      6.99549584	      0.24718487	      0.98861092	     -0.24509819	      4.33321469	      9.36104897	     -4.12290688	     -8.79572322	     -0.25538579	    -11.48103747	      0.00000000	     15.86175991	     -8.00070180	     -4.04397868	    -66.15139713	     -3.39599459	    -17.26678202	      0.00000000	    -11.60706976	      5.47461282	     -4.32848141	     -4.54705186	    -11.00562453	     38.28110534	     31.25308815	     41.84924204	      0.00000000	      0.00000000	      3.91733576	     -9.15001618	     36.87067661	     35.91369119	     41.84924204	      0.00000000	      0.00000000
      1.61000000	      2.42610714	     -3.64281221	      6.73784817	      0.25948865	      0.98991006	     -0.24448062	      3.23012924	      9.10441087	     -3.61801193	     -7.84443512	      0.04591313	    -10.98982178	      0.00000000	     17.24226909	     -7.23625920	     -4.06042798	    -65.17675625	     -1.67967969	    -16.82635541	      0.00000000	    -11.43271109	      4.96631143	     -3.95271740	     -3.63554387	    -11.22837817	     38.18400408	     31.53349246	     41.86441221	      0.00000000	      0.00000000	      3.20434184	     -9.11219629	     36.92345234	     35.57698799	     41.86441221	      0.00000000	      0.00000000
      1.62000000	      2.31412512	     -3.27032504	      6.36127828	      0.27209748	      0.99110152	     -0.24358748	      1.96532298	      8.83076520	     -3.13448227	     -6.90380794	      0.37058831	    -10.63996303	      0.00000000	     18.53975078	     -6.57193625	     -4.16431288	    -64.11331733	     -1.21161204	    -15.66722983	      0.00000000	    -11.36071702	      4.38826150	     -3.54625862	     -2.68852989	    -11.39024815	     38.11223985	     32.00951761	     41.88868897	      0.00000000	      0.00000000	      2.36640990	     -9.19738053	     36.93481070	     35.02540712	     41.88868897	      0.00000000	      0.00000000
      1.63000000	      2.09261734	     -3.03099908	      5.87746518	      0.28466674	      0.99168148	     -0.24255258	      0.88888096	      8.70421765	     -2.32175538	     -6.05048468	      0.55389920	    -10.86662612	      0.00000000	     19.86040817	     -6.11114725	     -4.44167506	    -62.74438815	     -0.40968794	    -14.59557036	      0.00000000	    -11.16480576	      3.94126510	     -3.00867174	     -2.15563732	    -12.00864102	     37.73528407	     34.17546241	     42.09797056	      0.00000000	      0.00000000	      1.90152393	     -8.86270057	     36.91344353	     33.16502817	     42.09797056	      0.00000000	      0.00000000
      1.64000000	      1.76872462	     -2.93593009	      5.30389956	      0.29707510	      0.99178153	     -0.24138547	      0.16201270	      8.67288188	     -1.88319105	     -5.57274340	      0.84993988	    -10.52412321	      0.00000000	     21.25835669	     -5.88390349	     -5.12203442	    -61.18137383	      0.12891408	    -14.40360990	      0.00000000	    -10.84616011	      3.65014317	     -2.38794023	     -1.24522752	    -12.21802639	     37.53928134	     34.46632127	     42.11610007	      0.00000000	      0.00000000	      1.06961431	     -8.96486945	     36.99553631	     32.93205613	     42.11610007	      0.00000000	      0.00000000
      1.65000000	      1.46108768	     -2.82190222	      4.70460623	      0.30938387	      0.99149846	     -0.24030412	     -0.57262292	      8.63280690	     -1.33982485	     -5.09277544	      1.12338340	    -10.63437121	      0.00000000	     22.46641872	     -5.61181904	     -5.60844179	    -59.31044502	      0.88620627	    -13.77249172	      0.00000000	    -10.57902942	      3.37921045	     -1.63068302	     -1.75392327	    -12.44613811	     31.98380883	     38.79825218	     42.98482191	      0.00000000	      0.00000000	      0.66654631	     -8.97498133	     38.65521630	     31.43224632	     42.98482191	      0.00000000	      0.00000000
